# xmcd
#
# Track frame offsets: 
#        150
#        29285
#        72192
#        109810
#        133780
#        184955
#        199807
#        230660
#        255875
#        285830
#
# Disc length: 4308 seconds
#
# Revision: 4
# Processed by: cddbd v1.5.2PL0 Copyright (c) Steve Scherf et al.
# Submitted via: ExactAudioCopy v1.0b3
#
DISCID=8a10d20a
DTITLE=Bryan Lee - Live at the Old Absinthe House Bar...Friday Night
DYEAR=1997
DGENRE=Blues
TTITLE0=Braille Blues Daddy
TTITLE1=Crosscut Saw
TTITLE2=The Sky Is Crying
TTITLE3=Ain't Doing Too Bad
TTITLE4=Five Long Years
TTITLE5=Automobile Blues
TTITLE6=Going Down
TTITLE7=Look on Yonder Wall
TTITLE8=Key to the Highway
TTITLE9=Rock Me, Baby
EXTD=
EXTT0=
EXTT1=
EXTT2=
EXTT3=
EXTT4=
EXTT5=
EXTT6=
EXTT7=
EXTT8=
EXTT9=
PLAYORDER=
